<svg width="40" height="40" viewBox="0 0 40 40" fill="none" xmlns="http://www.w3.org/2000/svg">
<g clip-path="url(#clip0_1570_15101)">
<path d="M21.8264 11.1848C21.1299 8.86217 20.1429 3.87158 19.7364 1.66663C19.5204 1.88153 18.9735 2.63872 18.514 3.94825C18.0546 5.25778 17.3506 6.25746 17.0561 6.59362C17.1886 6.66182 17.5804 7.00869 18.087 7.85053C18.7202 8.90283 18.6902 9.83899 18.4369 10.992C18.2085 12.0315 17.4872 12.8216 16.828 13.5437C16.5466 13.8519 16.2765 14.1478 16.0609 14.4453C15.4844 15.241 15.1024 16.8286 14.9835 17.5229C16.1174 16.7954 18.2706 16.8068 18.3164 18.2504C18.3531 19.4052 16.8428 20.3229 16.0831 20.6374C15.9914 22.4834 15.5342 23.987 15.317 24.5081C18.1743 26.996 19.5975 30.143 19.952 31.4055C21.1746 28.531 23.6149 25.6095 24.6822 24.5081C23.7798 23.0203 23.5179 20.8307 23.4997 19.9218C22.7351 19.7413 22.2989 19.3079 22.1534 18.8204C22.0078 18.3329 22.2443 17.9537 22.6082 17.9718C22.8993 17.9862 23.8335 18.0617 24.2642 18.0976C23.7418 16.7611 22.5229 13.5075 21.8264 11.1848Z" fill="url(#paint0_linear_1570_15101)"/>
<path d="M11.0668 12.7051C10.6378 12.3067 10.15 10.868 9.95966 10.1984C9.62516 11.2648 8.87816 12.1055 8.00225 13.0914C7.89832 13.2084 7.79258 13.3274 7.6855 13.4491C6.87783 14.3668 5.41758 15.8548 4.78842 16.484C6.57349 17.123 6.91002 17.7474 6.07601 19.0834C5.4088 20.1522 4.10735 20.6182 3.54002 20.7177C2.50208 26.3938 5.62466 30.8006 7.31569 32.2946L5.72313 35.1781C6.90964 34.5894 8.59601 34.2242 9.29088 34.1151C11.6842 34.5811 13.4957 37.1214 14.1023 38.3333C14.8343 37.0034 15.1984 35.4732 15.2889 34.8743C14.8457 34.8955 14.4311 34.5976 14.1023 34.1151C13.7735 33.6327 13.9518 33.0185 14.3263 32.8094C14.7009 32.6004 15.9063 32.612 16.4798 33.2741C16.9386 33.8037 17.937 35.4196 18.3788 36.1614V32.0816C17.9452 29.804 14.7299 26.3097 13.1765 24.8472C13.229 25.1655 13.152 26.0868 12.4243 27.2257C11.5146 28.6493 10.1245 27.3933 9.03931 25.6596C7.95409 23.9258 7.74234 21.2989 8.27171 18.5932C8.69521 16.4286 10.3116 13.7659 11.0668 12.7051Z" fill="url(#paint1_linear_1570_15101)"/>
<path d="M30.0403 10.1984C29.85 10.868 29.3622 12.3067 28.9331 12.7051C29.6884 13.7659 31.3047 16.4286 31.7282 18.5932C32.2576 21.2989 32.0459 23.9258 30.9607 25.6596C29.8754 27.3933 28.4853 28.6493 27.5757 27.2257C26.8479 26.0868 26.771 25.1655 26.8235 24.8472C25.27 26.3097 22.0548 29.804 21.6211 32.0816V36.1614C22.063 35.4196 23.0614 33.8037 23.5201 33.2741C24.0936 32.612 25.2991 32.6004 25.6736 32.8094C26.0481 33.0185 26.2265 33.6327 25.8977 34.1151C25.5688 34.5976 25.1542 34.8955 24.711 34.8743C24.8016 35.4732 25.1657 37.0034 25.8977 38.3333C26.5042 37.1214 28.3157 34.5811 30.7091 34.1151C31.4039 34.2242 33.0903 34.5894 34.2768 35.1781L32.6843 32.2946C34.3753 30.8006 37.4979 26.3938 36.4599 20.7177C35.8926 20.6182 34.5912 20.1522 33.9239 19.0834C33.0899 17.7474 33.4265 17.123 35.2115 16.484C34.5824 15.8548 33.1221 14.3668 32.3145 13.4491C32.2074 13.3274 32.1016 13.2084 31.9977 13.0914C31.1218 12.1055 30.3748 11.2648 30.0403 10.1984Z" fill="url(#paint2_linear_1570_15101)"/>
</g>
<defs>
<linearGradient id="paint0_linear_1570_15101" x1="20" y1="1.66663" x2="20" y2="38.3333" gradientUnits="userSpaceOnUse">
<stop stop-color="#EB848E"/>
<stop offset="1" stop-color="#674649"/>
</linearGradient>
<linearGradient id="paint1_linear_1570_15101" x1="20" y1="1.66663" x2="20" y2="38.3333" gradientUnits="userSpaceOnUse">
<stop stop-color="#EB848E"/>
<stop offset="1" stop-color="#674649"/>
</linearGradient>
<linearGradient id="paint2_linear_1570_15101" x1="20" y1="1.66663" x2="20" y2="38.3333" gradientUnits="userSpaceOnUse">
<stop stop-color="#EB848E"/>
<stop offset="1" stop-color="#674649"/>
</linearGradient>
<clipPath id="clip0_1570_15101">
<rect width="40" height="40" fill="white"/>
</clipPath>
</defs>
</svg>
