<svg width="40" height="40" viewBox="0 0 40 40" fill="none" xmlns="http://www.w3.org/2000/svg">
<g clip-path="url(#clip0_1570_15097)">
<path d="M20 14.6805L22.3952 6.11633L20 1.66663L17.6048 6.11633L20 14.6805Z" fill="url(#paint0_linear_1570_15097)"/>
<path d="M24.0018 6.71778C24.6192 7.36735 26.3152 8.65609 28.1609 8.61442C30.0066 8.57275 31.3837 7.38748 31.8415 6.80006H36.6666L26.9998 12.9181C26.7348 12.1784 25.5471 10.3705 22.9163 9.05647L24.0018 6.71778Z" fill="url(#paint1_linear_1570_15097)"/>
<path d="M11.8391 8.61442C13.6847 8.65609 15.3808 7.36735 15.9981 6.71778L17.0837 9.05647C14.4529 10.3705 13.2651 12.1784 13.0001 12.9181L3.33331 6.80006H8.15847C8.6163 7.38748 9.99338 8.57275 11.8391 8.61442Z" fill="url(#paint2_linear_1570_15097)"/>
<path d="M18.0835 34.6489C18.4003 35.7567 19.467 37.5659 20.0001 38.3333C20.5332 37.5658 21.5989 35.7566 21.9157 34.6489C22.2327 33.5406 23.7587 27.627 24.4821 24.8087L26.474 23.4101L27.5655 24.492C28.1409 24.4353 30.0013 24.4191 32.8399 24.8087L30.2614 20.1209L28.9037 19.7237C28.8382 19.1875 28.7227 18.0062 28.7845 17.5703C28.8617 17.0255 29.3787 15.9359 30.629 15.4433C31.8792 14.9508 32.0721 14.6821 32.2188 14.3985C32.3361 14.1716 32.9674 12.7566 33.2684 12.0775L33.8549 10.6893L25.7146 15.0009L27.4624 16.3381L26.5636 19.0643L20.8027 17.5703L24.5616 21.3164C23.7036 21.7203 21.9685 22.5597 21.8922 22.6861C21.816 22.8125 20.599 26.3898 19.9996 28.1638C19.4002 26.3898 18.1832 22.8125 18.1069 22.6861C18.0307 22.5597 16.2956 21.7203 15.4376 21.3164L19.1965 17.5703L13.4356 19.0643L12.5368 16.3381L14.2846 15.0009L6.1443 10.6893L6.73083 12.0775C7.03181 12.7566 7.66311 14.1716 7.78041 14.3985C7.92704 14.6821 8.11998 14.9508 9.37022 15.4433C10.6205 15.9359 11.1375 17.0255 11.2147 17.5703C11.2764 18.0062 11.161 19.1875 11.0955 19.7237L9.73777 20.1209L7.15925 24.8087C9.99791 24.4191 11.8583 24.4353 12.4337 24.492L13.5252 23.4101L15.5171 24.8087C16.2405 27.627 17.7665 33.5406 18.0835 34.6489Z" fill="url(#paint3_linear_1570_15097)"/>
</g>
<defs>
<linearGradient id="paint0_linear_1570_15097" x1="20" y1="1.66663" x2="20" y2="38.3333" gradientUnits="userSpaceOnUse">
<stop stop-color="#E1B06E"/>
<stop offset="1" stop-color="#6C5D46"/>
</linearGradient>
<linearGradient id="paint1_linear_1570_15097" x1="20" y1="1.66663" x2="20" y2="38.3333" gradientUnits="userSpaceOnUse">
<stop stop-color="#E1B06E"/>
<stop offset="1" stop-color="#6C5D46"/>
</linearGradient>
<linearGradient id="paint2_linear_1570_15097" x1="20" y1="1.66663" x2="20" y2="38.3333" gradientUnits="userSpaceOnUse">
<stop stop-color="#E1B06E"/>
<stop offset="1" stop-color="#6C5D46"/>
</linearGradient>
<linearGradient id="paint3_linear_1570_15097" x1="20" y1="1.66663" x2="20" y2="38.3333" gradientUnits="userSpaceOnUse">
<stop stop-color="#E1B06E"/>
<stop offset="1" stop-color="#6C5D46"/>
</linearGradient>
<clipPath id="clip0_1570_15097">
<rect width="40" height="40" fill="white"/>
</clipPath>
</defs>
</svg>
