<svg width="40" height="40" viewBox="0 0 40 40" fill="none" xmlns="http://www.w3.org/2000/svg">
<g clip-path="url(#clip0_1570_15099)">
<path fill-rule="evenodd" clip-rule="evenodd" d="M20 38.3333L7.19819 30.3376V27.0099L8.88934 25.2985V17.835L6.66669 15.8384V10.7043L11.9334 7.56677L11.8532 9.71427L13.9417 8.34446V4.42182L18.3559 1.66663V5.6204C18.5258 5.4229 19.087 5.0135 20 5.0135C20.913 5.0135 21.4743 5.4229 21.6441 5.6204V1.66663L26.0583 4.42182V8.34446L28.1468 9.71427L28.0666 7.56677L33.3334 10.7043V15.8384L31.1107 17.835V25.2985L32.8018 27.0099V30.3376L20 38.3333ZM14.1326 14.3109V28.6623L12.1412 27.0572V15.6328L14.1326 14.3109ZM25.767 28.6623V14.3109L27.7583 15.6328V27.0572L25.767 28.6623ZM18.5075 11.2816L19.9524 10.4068L21.4925 11.2816V31.5331L19.9524 32.017L18.5075 31.5331L18.5075 11.2816Z" fill="url(#paint0_linear_1570_15099)"/>
</g>
<defs>
<linearGradient id="paint0_linear_1570_15099" x1="20" y1="1.66663" x2="20" y2="38.3333" gradientUnits="userSpaceOnUse">
<stop stop-color="#7ED365"/>
<stop offset="1" stop-color="#4E6D47"/>
</linearGradient>
<clipPath id="clip0_1570_15099">
<rect width="40" height="40" fill="white"/>
</clipPath>
</defs>
</svg>
