<svg width="40" height="40" viewBox="0 0 40 40" fill="none" xmlns="http://www.w3.org/2000/svg">
<g clip-path="url(#clip0_1570_15095)">
<path fill-rule="evenodd" clip-rule="evenodd" d="M19.4369 1.66663C19.4369 1.66663 18.6203 3.09323 18.1659 3.91069C17.7583 4.64362 17.2364 5.5331 16.8396 6.10257L15.8218 7.28378C15.8218 7.28378 16.1765 8.55539 16.2317 8.97289C16.287 9.39039 16.3941 10.2883 16.3941 10.2883L17.2725 11.1524C17.7793 11.6508 18.2009 12.1671 18.2691 12.3723C18.334 12.568 18.4899 13.0569 18.6155 13.4587C18.8767 14.2949 19.0162 14.4785 19.7837 14.9969C20.432 15.4348 21.3655 16.3424 22.0395 17.1901L22.5166 17.7903H24.8043C27.4535 17.7903 27.5471 17.7719 29.5219 16.8642L30.8618 16.2481L31.0015 15.1713C31.094 14.4588 31.1035 14.0827 31.0298 14.0595C30.7771 13.98 27.5319 12.241 26.5638 11.6664C23.4346 9.80903 23.0058 9.23893 22.3117 6.01427L22.0347 4.72795L21.2844 4.05943C20.8716 3.69171 20.3959 3.20282 20.2272 2.97298C20.0587 2.74315 19.4369 1.66663 19.4369 1.66663ZM13.8294 10.9156C13.0977 11.6839 13.0909 11.7671 13.6693 12.884C13.9444 13.4152 14.3677 13.8964 15.6254 15.1074L17.2305 16.6529C17.5881 16.2796 17.7247 16.0436 17.686 15.5047C17.686 15.5047 15.2058 11.4314 14.4622 10.2514L13.8294 10.9156ZM9.96433 12.7119C10.0453 13.5313 9.80253 14.3935 9.27821 15.1489L8.902 15.6908L10.4455 18.1756L11.1904 18.387C11.6 18.5033 12.6254 18.7972 13.469 19.0403L15.0028 19.4823L15.7787 18.7496L15.1967 17.722C13.9328 15.4903 12.246 13.0668 11.7377 12.7523C11.6015 12.668 10.337 12.2063 9.89957 12.0573L9.96433 12.7119ZM29.1681 18.4632C28.7379 18.5414 27.5738 18.8212 26.581 19.0849C25.5883 19.3488 24.7208 19.5647 24.6533 19.5647C24.5504 19.5647 23.8163 20.6851 23.8163 20.8422C23.8163 20.916 25.2331 21.113 26.6346 21.2339C27.3033 21.2916 28.8239 21.3389 30.0136 21.3389L32.177 21.339C32.88 20.2459 33.3334 19.0269 33.3334 19.0269C33.275 18.9718 32.7419 18.736 32.3873 18.6183C31.5652 18.3453 30.1825 18.2788 29.1681 18.4632ZM6.66669 20.5574L7.59828 21.4491C8.73876 22.5408 9.60215 23.629 10.2498 24.7907C10.6866 25.5742 10.8179 25.7187 11.4482 26.1094C12.8626 26.9861 13.1825 27.2687 13.8594 28.239C14.7112 29.46 15.3139 30.9173 15.9269 33.237C16.1924 34.242 16.41 35.128 16.4106 35.2059C16.412 35.462 17.0749 36.1456 18.3905 37.2476L19.6864 38.3333L23.2097 35.024L22.445 34.3694C20.9834 33.1184 19.8158 31.3491 19.2871 29.5847C19.1234 29.0381 19.0252 28.2979 18.9615 27.1319C18.8438 24.9768 18.6527 24.4032 17.3899 22.4155L16.847 21.5609L15.7174 21.1502C14.3923 20.7684 8.84928 19.052 8.53307 18.9385C8.48555 18.9384 7.15619 20.1121 6.66669 20.5574ZM21.804 23.4453C20.9245 25.5823 20.9083 25.6426 20.9958 26.4366C21.1742 28.0545 21.6392 29.5386 22.4565 31.0981C23.0341 32.2003 23.2302 32.5811 24.224 32.5811L24.69 31.1612C25.3766 29.0687 25.8778 28.1765 26.9759 27.0928C27.4777 26.5977 28.5818 25.5805 29.3344 25.1487L29.3424 22.8003L27.9885 22.7997C26.1869 22.7988 24.7751 22.589 22.5927 21.9977C22.5927 21.9977 22.2796 22.2896 21.804 23.4453Z" fill="url(#paint0_linear_1570_15095)"/>
</g>
<defs>
<linearGradient id="paint0_linear_1570_15095" x1="20" y1="1.66663" x2="20" y2="38.3333" gradientUnits="userSpaceOnUse">
<stop stop-color="#9F76F0"/>
<stop offset="1" stop-color="#6151AD"/>
</linearGradient>
<clipPath id="clip0_1570_15095">
<rect width="40" height="40" fill="white"/>
</clipPath>
</defs>
</svg>
